HIERARCHY
ROOT mixamorig:Hips
{
	OFFSET -0.000008 104.274872 1.554316
	CHANNELS 6 Xposition Yposition Zposition Xrotation Yrotation Zrotation
	JOINT mixamorig:Spine
	{
		OFFSET -0.000005 10.181595 0.131519
		CHANNELS 6 Xposition Yposition Zposition Xrotation Yrotation Zrotation
		JOINT mixamorig:Spine1
		{
			OFFSET -0.000000 9.893959 -1.470707
			CHANNELS 6 Xposition Yposition Zposition Xrotation Yrotation Zrotation
			JOINT mixamorig:Spine2
			{
				OFFSET -0.000000 9.220757 -1.370641
				CHANNELS 6 Xposition Yposition Zposition Xrotation Yrotation Zrotation
				JOINT mixamorig:Neck
				{
					OFFSET 0.000001 16.740417 -2.049036
					CHANNELS 6 Xposition Yposition Zposition Xrotation Yrotation Zrotation
					JOINT mixamorig:Head
					{
						OFFSET 0.000000 9.617874 1.685006
						CHANNELS 6 Xposition Yposition Zposition Xrotation Yrotation Zrotation
						JOINT mixamorig:HeadTop_End
						{
							OFFSET 0.000002 22.037354 7.501101
							CHANNELS 6 Xposition Yposition Zposition Xrotation Yrotation Zrotation
							End Site
							{
								OFFSET 0.000168 2310.654297 -282.823242
							}
						}
					}
				}
				JOINT mixamorig:RightShoulder
				{
					OFFSET -4.569970 11.014908 -2.160885
					CHANNELS 6 Xposition Yposition Zposition Xrotation Yrotation Zrotation
					JOINT mixamorig:RightArm
					{
						OFFSET -10.592851 -0.524811 -2.232101
						CHANNELS 6 Xposition Yposition Zposition Xrotation Yrotation Zrotation
						JOINT mixamorig:RightForeArm
						{
							OFFSET -27.841511 0.000031 -0.000004
							CHANNELS 6 Xposition Yposition Zposition Xrotation Yrotation Zrotation
							JOINT mixamorig:RightHand
							{
								OFFSET -28.328831 -0.000015 0.000015
								CHANNELS 6 Xposition Yposition Zposition Xrotation Yrotation Zrotation
								JOINT mixamorig:RightHandThumb1
								{
									OFFSET -2.464806 -1.573990 2.681852
									CHANNELS 6 Xposition Yposition Zposition Xrotation Yrotation Zrotation
									JOINT mixamorig:RightHandThumb2
									{
										OFFSET -3.215179 -1.872803 1.924282
										CHANNELS 6 Xposition Yposition Zposition Xrotation Yrotation Zrotation
										JOINT mixamorig:RightHandThumb3
										{
											OFFSET -2.654831 -1.527969 1.512609
											CHANNELS 6 Xposition Yposition Zposition Xrotation Yrotation Zrotation
											JOINT mixamorig:RightHandThumb4
											{
												OFFSET -2.018814 -1.152008 1.108052
												CHANNELS 6 Xposition Yposition Zposition Xrotation Yrotation Zrotation
												End Site
												{
													OFFSET -188.809540 -114.533607 132.431396
												}
											}
										}
									}
								}
								JOINT mixamorig:RightHandIndex1
								{
									OFFSET -9.108284 -0.517868 2.259835
									CHANNELS 6 Xposition Yposition Zposition Xrotation Yrotation Zrotation
									JOINT mixamorig:RightHandIndex2
									{
										OFFSET -3.699989 0.000000 0.001215
										CHANNELS 6 Xposition Yposition Zposition Xrotation Yrotation Zrotation
										JOINT mixamorig:RightHandIndex3
										{
											OFFSET -2.850006 0.000031 -0.000522
											CHANNELS 6 Xposition Yposition Zposition Xrotation Yrotation Zrotation
											JOINT mixamorig:RightHandIndex4
											{
												OFFSET -2.772186 -0.000015 -0.000020
												CHANNELS 6 Xposition Yposition Zposition Xrotation Yrotation Zrotation
												End Site
												{
													OFFSET -277.218445 0.000000 -0.050231
												}
											}
										}
									}
								}
								JOINT mixamorig:RightHandMiddle1
								{
									OFFSET -9.532516 -0.000031 -0.000023
									CHANNELS 6 Xposition Yposition Zposition Xrotation Yrotation Zrotation
									JOINT mixamorig:RightHandMiddle2
									{
										OFFSET -3.700005 -0.000015 0.003713
										CHANNELS 6 Xposition Yposition Zposition Xrotation Yrotation Zrotation
										JOINT mixamorig:RightHandMiddle3
										{
											OFFSET -2.949974 0.000015 -0.002054
											CHANNELS 6 Xposition Yposition Zposition Xrotation Yrotation Zrotation
											JOINT mixamorig:RightHandMiddle4
											{
												OFFSET -2.946640 0.000000 -0.000156
												CHANNELS 6 Xposition Yposition Zposition Xrotation Yrotation Zrotation
												End Site
												{
													OFFSET -294.664337 0.000000 -0.113670
												}
											}
										}
									}
								}
								JOINT mixamorig:RightHandRing1
								{
									OFFSET -9.103600 -0.043076 -1.865134
									CHANNELS 6 Xposition Yposition Zposition Xrotation Yrotation Zrotation
									JOINT mixamorig:RightHandRing2
									{
										OFFSET -3.379288 0.000000 -0.001055
										CHANNELS 6 Xposition Yposition Zposition Xrotation Yrotation Zrotation
										JOINT mixamorig:RightHandRing3
										{
											OFFSET -2.889687 -0.000015 0.000379
											CHANNELS 6 Xposition Yposition Zposition Xrotation Yrotation Zrotation
											JOINT mixamorig:RightHandRing4
											{
												OFFSET -2.638809 -0.000015 0.000941
												CHANNELS 6 Xposition Yposition Zposition Xrotation Yrotation Zrotation
												End Site
												{
													OFFSET -263.880371 0.000000 0.516020
												}
											}
										}
									}
								}
								JOINT mixamorig:RightHandPinky1
								{
									OFFSET -8.076683 -0.486710 -3.806280
									CHANNELS 6 Xposition Yposition Zposition Xrotation Yrotation Zrotation
									JOINT mixamorig:RightHandPinky2
									{
										OFFSET -3.600014 -0.000015 -0.003747
										CHANNELS 6 Xposition Yposition Zposition Xrotation Yrotation Zrotation
										JOINT mixamorig:RightHandPinky3
										{
											OFFSET -2.099983 0.000000 -0.005739
											CHANNELS 6 Xposition Yposition Zposition Xrotation Yrotation Zrotation
											JOINT mixamorig:RightHandPinky4
											{
												OFFSET -2.115768 -0.000031 -0.003680
												CHANNELS 6 Xposition Yposition Zposition Xrotation Yrotation Zrotation
												End Site
												{
													OFFSET -211.577087 0.000000 -0.350686
												}
											}
										}
									}
								}
							}
						}
					}
				}
				JOINT mixamorig:LeftShoulder
				{
					OFFSET 4.570447 11.014725 -2.160855
					CHANNELS 6 Xposition Yposition Zposition Xrotation Yrotation Zrotation
					JOINT mixamorig:LeftArm
					{
						OFFSET 10.592371 -0.524597 -2.232119
						CHANNELS 6 Xposition Yposition Zposition Xrotation Yrotation Zrotation
						JOINT mixamorig:LeftForeArm
						{
							OFFSET 27.841532 -0.000031 0.000026
							CHANNELS 6 Xposition Yposition Zposition Xrotation Yrotation Zrotation
							JOINT mixamorig:LeftHand
							{
								OFFSET 28.328846 -0.000061 0.000022
								CHANNELS 6 Xposition Yposition Zposition Xrotation Yrotation Zrotation
								JOINT mixamorig:LeftHandThumb1
								{
									OFFSET 2.466141 -1.576172 2.681732
									CHANNELS 6 Xposition Yposition Zposition Xrotation Yrotation Zrotation
									JOINT mixamorig:LeftHandThumb2
									{
										OFFSET 3.217812 -1.872070 1.916482
										CHANNELS 6 Xposition Yposition Zposition Xrotation Yrotation Zrotation
										JOINT mixamorig:LeftHandThumb3
										{
											OFFSET 2.656029 -1.528778 1.514513
											CHANNELS 6 Xposition Yposition Zposition Xrotation Yrotation Zrotation
											JOINT mixamorig:LeftHandThumb4
											{
												OFFSET 2.020889 -1.154053 1.115139
												CHANNELS 6 Xposition Yposition Zposition Xrotation Yrotation Zrotation
												End Site
												{
													OFFSET 190.885437 -115.081749 130.048782
												}
											}
										}
									}
								}
								JOINT mixamorig:LeftHandIndex1
								{
									OFFSET 9.109314 -0.518021 2.259871
									CHANNELS 6 Xposition Yposition Zposition Xrotation Yrotation Zrotation
									JOINT mixamorig:LeftHandIndex2
									{
										OFFSET 3.699989 0.000000 -0.000322
										CHANNELS 6 Xposition Yposition Zposition Xrotation Yrotation Zrotation
										JOINT mixamorig:LeftHandIndex3
										{
											OFFSET 2.850006 0.000000 0.000352
											CHANNELS 6 Xposition Yposition Zposition Xrotation Yrotation Zrotation
											JOINT mixamorig:LeftHandIndex4
											{
												OFFSET 2.774864 -0.000031 -0.000027
												CHANNELS 6 Xposition Yposition Zposition Xrotation Yrotation Zrotation
												End Site
												{
													OFFSET 277.486267 0.000000 -0.009857
												}
											}
										}
									}
								}
								JOINT mixamorig:LeftHandMiddle1
								{
									OFFSET 9.533394 0.000061 0.000044
									CHANNELS 6 Xposition Yposition Zposition Xrotation Yrotation Zrotation
									JOINT mixamorig:LeftHandMiddle2
									{
										OFFSET 3.699989 -0.000015 -0.000231
										CHANNELS 6 Xposition Yposition Zposition Xrotation Yrotation Zrotation
										JOINT mixamorig:LeftHandMiddle3
										{
											OFFSET 2.949997 -0.000015 -0.000059
											CHANNELS 6 Xposition Yposition Zposition Xrotation Yrotation Zrotation
											JOINT mixamorig:LeftHandMiddle4
											{
												OFFSET 2.952896 0.000031 0.000063
												CHANNELS 6 Xposition Yposition Zposition Xrotation Yrotation Zrotation
												End Site
												{
													OFFSET 295.289337 0.000000 0.022810
												}
											}
										}
									}
								}
								JOINT mixamorig:LeftHandRing1
								{
									OFFSET 9.104523 -0.042999 -1.865074
									CHANNELS 6 Xposition Yposition Zposition Xrotation Yrotation Zrotation
									JOINT mixamorig:LeftHandRing2
									{
										OFFSET 3.150009 -0.000031 0.000043
										CHANNELS 6 Xposition Yposition Zposition Xrotation Yrotation Zrotation
										JOINT mixamorig:LeftHandRing3
										{
											OFFSET 2.949982 -0.000015 0.000040
											CHANNELS 6 Xposition Yposition Zposition Xrotation Yrotation Zrotation
											JOINT mixamorig:LeftHandRing4
											{
												OFFSET 2.644348 0.000000 0.000057
												CHANNELS 6 Xposition Yposition Zposition Xrotation Yrotation Zrotation
												End Site
												{
													OFFSET 264.434631 0.000000 0.012105
												}
											}
										}
									}
								}
								JOINT mixamorig:LeftHandPinky1
								{
									OFFSET 8.077789 -0.486847 -3.806259
									CHANNELS 6 Xposition Yposition Zposition Xrotation Yrotation Zrotation
									JOINT mixamorig:LeftHandPinky2
									{
										OFFSET 3.599953 0.000031 0.014727
										CHANNELS 6 Xposition Yposition Zposition Xrotation Yrotation Zrotation
										JOINT mixamorig:LeftHandPinky3
										{
											OFFSET 2.100021 0.000015 0.007705
											CHANNELS 6 Xposition Yposition Zposition Xrotation Yrotation Zrotation
											JOINT mixamorig:LeftHandPinky4
											{
												OFFSET 2.125504 0.000031 0.007517
												CHANNELS 6 Xposition Yposition Zposition Xrotation Yrotation Zrotation
												End Site
												{
													OFFSET 212.550781 0.000000 0.625752
												}
											}
										}
									}
								}
							}
						}
					}
				}
			}
		}
	}
	JOINT mixamorig:RightUpLeg
	{
		OFFSET -8.207787 -6.751648 -1.599560
		CHANNELS 6 Xposition Yposition Zposition Xrotation Yrotation Zrotation
		JOINT mixamorig:RightLeg
		{
			OFFSET -0.000002 -44.370117 0.345942
			CHANNELS 6 Xposition Yposition Zposition Xrotation Yrotation Zrotation
			JOINT mixamorig:RightFoot
			{
				OFFSET 0.000003 -44.423679 -3.043532
				CHANNELS 6 Xposition Yposition Zposition Xrotation Yrotation Zrotation
				JOINT mixamorig:RightToeBase
				{
					OFFSET -0.000002 -8.728671 10.710558
					CHANNELS 6 Xposition Yposition Zposition Xrotation Yrotation Zrotation
					JOINT mixamorig:RightToe_End
					{
						OFFSET -0.000001 -0.000679 9.278119
						CHANNELS 6 Xposition Yposition Zposition Xrotation Yrotation Zrotation
						End Site
						{
							OFFSET 0.000000 -0.067690 927.812134
						}
					}
				}
			}
		}
	}
	JOINT mixamorig:LeftUpLeg
	{
		OFFSET 8.207793 -6.751686 -1.599556
		CHANNELS 6 Xposition Yposition Zposition Xrotation Yrotation Zrotation
		JOINT mixamorig:LeftLeg
		{
			OFFSET -0.000004 -44.370014 0.346954
			CHANNELS 6 Xposition Yposition Zposition Xrotation Yrotation Zrotation
			JOINT mixamorig:LeftFoot
			{
				OFFSET -0.000001 -44.423672 -3.044401
				CHANNELS 6 Xposition Yposition Zposition Xrotation Yrotation Zrotation
				JOINT mixamorig:LeftToeBase
				{
					OFFSET -0.000002 -8.728669 10.710558
					CHANNELS 6 Xposition Yposition Zposition Xrotation Yrotation Zrotation
					JOINT mixamorig:LeftToe_End
					{
						OFFSET -0.000003 -0.000679 9.278133
						CHANNELS 6 Xposition Yposition Zposition Xrotation Yrotation Zrotation
						End Site
						{
							OFFSET 0.000000 -0.068021 927.813477
						}
					}
				}
			}
		}
	}
}
MOTION
Frames: 3
Frame Time: 0.033333
0.000006 104.270477 1.554256 0.000010 0.000003 -0.000113 -0.000005 10.181587 0.131522 0.000001 -0.000003 0.000084 -0.000000 9.893967 -1.470711 0.000001 0.000000 -0.000000 -0.000000 9.220802 -1.370642 0.000000 -0.000000 -0.000000 0.000001 16.740433 -2.049030 0.000000 -0.000000 -0.000000 0.000000 9.617859 1.685014 0.000000 0.000000 0.000000 0.000002 22.037384 7.501101 0.000000 -0.000000 0.000000 -4.569968 11.014880 -2.160881 0.000008 0.000001 -0.000038 -10.592885 -0.524720 -2.231972 72.809420 18.634791 -13.796499 -27.841537 0.000018 0.000523 -63.511969 110.056115 83.010738 -28.328819 0.000022 0.000023 -0.000318 -0.000043 0.000006 -2.464451 -1.573923 2.682385 -29.937108 -153.634273 27.042355 -3.215287 -1.872605 1.924647 157.340005 32.089301 4.537538 -2.654927 -1.527910 1.513110 147.894223 25.616957 -47.760880 -2.018842 -1.151997 1.108063 -0.000001 -0.000001 0.000002 -9.108389 -0.517555 2.260112 97.586020 17.046819 -19.477765 -3.700066 0.000318 0.001512 93.725932 14.454270 -15.389458 -2.850090 0.000366 -0.000257 92.884398 12.284973 -12.913314 -2.772173 -0.000015 -0.000017 0.000002 -0.000000 0.000001 -9.532596 0.000263 0.000235 93.573742 15.435951 -16.567283 -3.700042 0.000325 0.003980 93.755357 12.644710 -13.392669 -2.950072 0.000314 -0.001815 92.882738 12.310087 -12.932787 -2.946632 0.000000 -0.000156 0.000001 -0.000000 -0.000000 -9.103712 -0.042756 -1.864877 92.018132 17.253293 -17.815918 -3.379337 0.000317 -0.000808 93.566447 9.638409 -10.273080 -2.889746 0.000345 0.000622 95.963311 7.139867 -7.972801 -2.638826 -0.000001 0.000945 0.000000 -0.000001 -0.000002 -8.076759 -0.486388 -3.806036 84.979643 18.225557 -16.577282 -3.600052 0.000283 -0.003518 91.019893 7.985379 -7.769210 -2.100013 0.000323 -0.005481 93.097698 5.332522 -5.397977 -2.115772 -0.000041 -0.003678 0.000000 0.000000 -0.000005 4.570446 11.014691 -2.160851 -0.000018 0.000010 -0.000021 10.592402 -0.524471 -2.232357 75.424386 -13.220380 10.240720 27.841824 0.000081 -0.000214 100.109488 -69.159490 78.916429 28.328840 -0.000029 0.000021 0.000024 -0.000088 -0.000000 2.466027 -1.576155 2.681895 -34.088450 157.903441 -20.524744 3.217803 -1.871754 1.916369 156.725316 -30.424941 4.269028 2.656107 -1.528626 1.514449 141.523705 -27.599411 42.435129 2.020891 -1.154086 1.115144 -0.000001 0.000005 0.000002 9.109370 -0.517832 2.259718 86.290506 -14.939627 14.000534 3.700043 0.000129 -0.000454 81.937900 -15.024724 13.079960 2.850038 0.000186 0.000207 81.123714 -13.348158 11.438026 2.774884 -0.000048 -0.000026 -0.000000 0.000003 0.000004 9.533457 0.000236 -0.000100 86.635964 -13.354274 12.590517 3.700058 0.000178 -0.000374 87.515487 -13.137791 12.582074 2.950066 0.000172 -0.000201 87.744455 -16.350815 15.730474 2.952857 -0.000014 0.000061 0.000002 0.000000 0.000001 9.104579 -0.042821 -1.865229 84.969206 -13.057087 11.968233 3.150046 0.000194 -0.000091 90.535742 -12.660165 12.779968 2.950030 0.000177 -0.000056 91.624713 -14.504554 14.919027 2.644323 0.000047 0.000058 0.000002 0.000000 0.000001 8.077847 -0.486718 -3.806416 72.070974 -15.675581 11.868365 3.599988 0.000181 0.014565 76.147443 -13.365771 10.891675 2.100053 0.000178 0.007545 79.860252 -12.673820 11.030024 2.125516 -0.000017 0.007518 0.000001 0.000001 -0.000002 -8.207786 -6.751667 -1.599560 -0.077001 -0.000003 0.000080 -0.000002 -44.370110 0.345938 0.153719 -0.000000 -0.000000 0.000000 -44.423679 -3.043532 -0.076700 0.000000 -0.000002 -0.000006 -8.728667 10.710559 -0.000009 -0.000000 -0.000000 -0.000001 -0.000679 9.278123 0.000000 -0.000000 -0.000000 8.207792 -6.751710 -1.599556 -0.074518 -0.000003 0.000081 -0.000002 -44.370014 0.346960 0.148822 0.000002 0.000000 -0.000001 -44.423664 -3.044403 -0.074314 0.000000 -0.000002 -0.000004 -8.728671 10.710558 0.000007 -0.000000 -0.000000 0.000000 -0.000680 9.278137 -0.000000 0.000000 -0.000001 
0.000006 104.270477 1.554256 0.000010 0.000003 -0.000113 -0.000005 10.181587 0.131522 0.000001 -0.000003 0.000084 -0.000000 9.893967 -1.470711 0.000001 0.000000 -0.000000 -0.000000 9.220802 -1.370642 0.000000 -0.000000 -0.000000 0.000001 16.740433 -2.049030 0.000000 -0.000000 -0.000000 0.000000 9.617859 1.685014 0.000000 0.000000 0.000000 0.000002 22.037384 7.501101 0.000000 -0.000000 0.000000 -4.569968 11.014880 -2.160881 0.000008 0.000001 -0.000038 -10.592878 -0.524734 -2.231939 73.703888 23.409133 -17.652638 -27.841537 0.000021 0.000537 -62.147195 108.520996 79.885674 -28.328814 0.000021 0.000026 -0.000322 -0.000044 0.000007 -2.464417 -1.573771 2.682318 -48.117501 -164.056131 -10.513040 -3.215275 -1.872589 1.924653 152.313820 31.484266 4.988245 -2.654958 -1.527877 1.513080 144.194214 27.520437 -36.561934 -2.018822 -1.151986 1.108069 -0.000003 0.000000 -0.000000 -9.108390 -0.517558 2.260103 96.811614 15.518441 -17.505859 -3.700060 0.000310 0.001499 94.049389 13.789908 -14.764485 -2.850085 0.000357 -0.000266 93.452629 11.082612 -11.765736 -2.772172 -0.000001 -0.000020 0.000003 -0.000000 0.000000 -9.532598 0.000278 0.000228 92.422971 16.078183 -16.911593 -3.700060 0.000315 0.003979 92.716813 13.558884 -14.110210 -2.950067 0.000327 -0.001795 95.462959 12.143172 -13.341575 -2.946618 0.000000 -0.000153 0.000002 -0.000001 0.000000 -9.103706 -0.042761 -1.864878 89.401138 18.142249 -17.912077 -3.379331 0.000318 -0.000817 91.792155 10.634345 -10.988371 -2.889746 0.000347 0.000652 99.624429 6.972617 -8.304406 -2.638810 -0.000017 0.000938 0.000001 -0.000000 0.000000 -8.076757 -0.486390 -3.806046 83.378523 18.377109 -16.259602 -3.600040 0.000284 -0.003521 89.344311 8.532003 -8.083874 -2.100025 0.000311 -0.005472 95.439149 4.487480 -4.697346 -2.115771 -0.000054 -0.003676 0.000001 -0.000001 -0.000002 4.570446 11.014691 -2.160851 -0.000018 0.000010 -0.000021 10.592382 -0.524489 -2.232336 74.646338 -5.597881 4.269537 27.841835 0.000086 -0.000222 101.941864 -70.634558 82.307591 28.328840 -0.000028 0.000018 0.000022 -0.000089 -0.000000 2.466091 -1.576167 2.681891 -19.041961 159.527141 -52.056444 3.217827 -1.871747 1.916386 162.915038 -29.039348 12.123813 2.656101 -1.528659 1.514481 142.354939 -26.784933 52.256739 2.020899 -1.154068 1.115144 0.000005 0.000003 -0.000001 9.109363 -0.517865 2.259741 86.301305 -17.246079 16.170201 3.700017 0.000149 -0.000467 83.957546 -11.419045 10.295556 2.850026 0.000188 0.000204 82.832730 -8.920370 7.871318 2.774883 -0.000017 -0.000033 0.000000 0.000002 0.000001 9.533451 0.000212 -0.000093 85.863353 -16.258926 15.130822 3.700050 0.000187 -0.000392 89.113813 -9.928786 9.774574 2.950051 0.000170 -0.000211 89.698962 -10.554918 10.502780 2.952863 -0.000015 0.000069 0.000003 0.000003 0.000001 9.104571 -0.042841 -1.865234 84.752512 -15.929097 14.550605 3.150048 0.000222 -0.000106 92.016513 -11.084651 11.481052 2.950038 0.000189 -0.000089 93.834915 -10.333983 11.047437 2.644325 0.000033 0.000057 0.000000 0.000002 -0.000000 8.077820 -0.486725 -3.806422 76.926570 -18.049176 14.860970 3.600008 0.000167 0.014572 78.301268 -15.457355 13.038217 2.100028 0.000198 0.007560 80.850349 -11.708973 10.394459 2.125519 -0.000029 0.007518 0.000000 0.000001 -0.000003 -8.207786 -6.751667 -1.599560 -0.077001 -0.000003 0.000080 -0.000002 -44.370110 0.345938 0.153719 -0.000000 -0.000000 0.000000 -44.423679 -3.043532 -0.076700 0.000000 -0.000002 -0.000006 -8.728667 10.710559 -0.000009 -0.000000 -0.000000 -0.000001 -0.000679 9.278123 0.000000 -0.000000 -0.000000 8.207792 -6.751710 -1.599556 -0.074518 -0.000003 0.000081 -0.000002 -44.370014 0.346960 0.148822 0.000002 0.000000 -0.000001 -44.423664 -3.044403 -0.074314 0.000000 -0.000002 -0.000004 -8.728671 10.710558 0.000007 -0.000000 -0.000000 0.000000 -0.000680 9.278137 -0.000000 0.000000 -0.000001 
0.000006 104.270477 1.554256 0.000010 0.000003 -0.000113 -0.000005 10.181587 0.131522 0.000001 -0.000003 0.000084 -0.000000 9.893967 -1.470711 0.000001 0.000000 -0.000000 -0.000000 9.220802 -1.370642 0.000000 -0.000000 -0.000000 0.000001 16.740433 -2.049030 0.000000 -0.000000 -0.000000 0.000000 9.617859 1.685014 0.000000 0.000000 0.000000 0.000002 22.037384 7.501101 0.000000 -0.000000 0.000000 -4.569968 11.014880 -2.160881 0.000008 0.000001 -0.000038 -10.592866 -0.524788 -2.231877 74.075635 35.345204 -27.037278 -27.841530 0.000014 0.000543 -59.933127 105.365893 74.207109 -28.328814 0.000022 0.000032 -0.000324 -0.000045 0.000004 -2.464417 -1.573775 2.682332 -46.360797 -162.456924 -6.144977 -3.215292 -1.872561 1.924649 152.023659 30.782566 0.357496 -2.654953 -1.527881 1.513062 143.645463 27.857388 -33.101873 -2.018831 -1.152020 1.108059 -0.000002 -0.000005 0.000004 -9.108380 -0.517548 2.260113 97.349655 14.729293 -16.776377 -3.700065 0.000320 0.001508 94.445308 12.986085 -13.999483 -2.850088 0.000364 -0.000269 93.339794 10.345231 -10.961898 -2.772168 -0.000000 -0.000022 -0.000002 0.000001 -0.000001 -9.532595 0.000269 0.000227 93.391806 14.924272 -15.972915 -3.700077 0.000328 0.003975 92.965712 12.677157 -13.244774 -2.950059 0.000337 -0.001805 94.782822 11.452246 -12.435257 -2.946620 0.000001 -0.000154 0.000001 0.000000 0.000001 -9.103687 -0.042756 -1.864881 90.440632 16.573507 -16.654914 -3.379319 0.000318 -0.000806 92.038753 10.189913 -10.575144 -2.889748 0.000358 0.000640 99.339487 6.921466 -8.202575 -2.638819 -0.000002 0.000941 0.000001 -0.000002 -0.000002 -8.076751 -0.486384 -3.806039 84.030042 16.632556 -14.867928 -3.600062 0.000289 -0.003523 89.682754 7.630971 -7.239682 -2.100011 0.000329 -0.005474 95.691715 4.014105 -4.197103 -2.115763 -0.000043 -0.003679 0.000003 0.000000 -0.000002 4.570446 11.014691 -2.160851 -0.000018 0.000010 -0.000021 10.592409 -0.524475 -2.232358 73.902531 -15.691916 11.835970 27.841831 0.000070 -0.000201 104.401887 -72.985626 87.287045 28.328815 -0.000028 0.000014 0.000021 -0.000089 0.000000 2.466203 -1.576143 2.681870 -10.331367 160.331437 -67.712918 3.217824 -1.871727 1.916388 163.098415 -28.730173 13.457170 2.656120 -1.528646 1.514491 142.442939 -26.738085 52.533915 2.020899 -1.154049 1.115139 0.000003 0.000001 0.000002 9.109366 -0.517864 2.259731 86.155207 -18.328043 17.144094 3.700020 0.000169 -0.000470 83.764129 -12.406438 11.148271 2.850039 0.000199 0.000196 82.793866 -9.578406 8.446865 2.774887 -0.000046 -0.000029 0.000001 -0.000003 0.000000 9.533455 0.000203 -0.000089 85.796902 -18.003533 16.739335 3.700037 0.000192 -0.000390 88.817014 -11.006675 10.780494 2.950060 0.000193 -0.000203 89.382103 -10.971551 10.857428 2.952851 -0.000031 0.000064 -0.000001 0.000001 -0.000000 9.104591 -0.042856 -1.865215 84.774962 -17.624123 16.108917 3.150048 0.000213 -0.000101 91.942911 -12.030209 12.443917 2.950019 0.000193 -0.000071 93.165508 -10.375668 10.963675 2.644327 0.000030 0.000052 -0.000000 -0.000000 -0.000001 8.077839 -0.486730 -3.806385 77.835408 -19.210821 16.053429 3.600013 0.000164 0.014578 78.041386 -16.413882 13.763202 2.100037 0.000179 0.007547 80.009396 -11.963722 10.457590 2.125489 0.000000 0.007516 0.000000 -0.000001 -0.000000 -8.207786 -6.751667 -1.599560 -0.077001 -0.000003 0.000080 -0.000002 -44.370110 0.345938 0.153719 -0.000000 -0.000000 0.000000 -44.423679 -3.043532 -0.076700 0.000000 -0.000002 -0.000006 -8.728667 10.710559 -0.000009 -0.000000 -0.000000 -0.000001 -0.000679 9.278123 0.000000 -0.000000 -0.000000 8.207792 -6.751710 -1.599556 -0.074518 -0.000003 0.000081 -0.000002 -44.370014 0.346960 0.148822 0.000002 0.000000 -0.000001 -44.423664 -3.044403 -0.074314 0.000000 -0.000002 -0.000004 -8.728671 10.710558 0.000007 -0.000000 -0.000000 0.000000 -0.000680 9.278137 -0.000000 0.000000 -0.000001 
